<svg width="83" height="58" viewBox="0 0 83 58" fill="none" xmlns="http://www.w3.org/2000/svg">
<rect width="83" height="58" rx="29" fill="#FEE5E6"/>
<ellipse cx="22.5" cy="23" rx="6.5" ry="6" fill="black"/>
<ellipse cx="58.5" cy="23" rx="6.5" ry="6" fill="#040404"/>
<mask id="mask0_0:1" style="mask-type:alpha" maskUnits="userSpaceOnUse" x="56" y="30" width="7" height="8">
<ellipse cx="59.5" cy="34" rx="3.5" ry="4" fill="#FF006B"/>
</mask>
<g mask="url(#mask0_0:1)">
<rect x="56" y="30" width="7" height="4" rx="2" fill="#FF006B"/>
</g>
<mask id="mask1_0:1" style="mask-type:alpha" maskUnits="userSpaceOnUse" x="19" y="30" width="7" height="8">
<ellipse cx="22.5" cy="34" rx="3.5" ry="4" fill="#FF006B"/>
</mask>
<g mask="url(#mask1_0:1)">
<rect x="19" y="30" width="7" height="4" rx="2" fill="#FF006B"/>
</g>
<ellipse cx="22" cy="20.5" rx="3" ry="2.5" fill="white"/>
<ellipse cx="57" cy="20.5" rx="3" ry="2.5" fill="white"/>
<circle cx="19.5" cy="25.5" r="1.5" fill="white"/>
<circle cx="55.5" cy="25.5" r="1.5" fill="white"/>
<path d="M63.286 15.5C64.2326 15.5 65.0243 14.7034 64.648 13.8348C64.2879 13.0036 63.6599 12.2391 62.8033 11.6109C61.3968 10.5795 59.4891 10 57.5 10C55.5109 10 53.6032 10.5795 52.1967 11.6109C51.3401 12.2391 50.7121 13.0036 50.352 13.8348C49.9757 14.7034 50.7674 15.5 51.714 15.5V15.5C52.6606 15.5 53.424 14.6588 54.0328 13.934C54.1978 13.7375 54.3945 13.5542 54.6206 13.3884C55.3843 12.8284 56.42 12.5138 57.5 12.5138C58.58 12.5138 59.6157 12.8284 60.3794 13.3884C60.6055 13.5542 60.8022 13.7375 60.9672 13.934C61.576 14.6588 62.3394 15.5 63.286 15.5V15.5Z" fill="black"/>
<path d="M27.286 16.5C28.2326 16.5 29.0243 15.7034 28.648 14.8348C28.2879 14.0036 27.6599 13.2391 26.8033 12.6109C25.3968 11.5795 23.4891 11 21.5 11C19.5109 11 17.6032 11.5795 16.1967 12.6109C15.3401 13.2391 14.7121 14.0036 14.352 14.8348C13.9757 15.7034 14.7674 16.5 15.714 16.5V16.5C16.6606 16.5 17.424 15.6588 18.0328 14.934C18.1978 14.7375 18.3945 14.5542 18.6206 14.3884C19.3843 13.8284 20.42 13.5138 21.5 13.5138C22.58 13.5138 23.6157 13.8284 24.3794 14.3884C24.6055 14.5542 24.8022 14.7375 24.9672 14.934C25.576 15.6588 26.3394 16.5 27.286 16.5V16.5Z" fill="black"/>
<path d="M48.6574 35.5C49.3989 35.5 50.0161 36.1113 49.8211 36.8267C49.713 37.223 49.5565 37.6116 49.353 37.9874C48.9258 38.7761 48.2997 39.4926 47.5104 40.0962C46.7211 40.6998 45.7841 41.1786 44.7528 41.5052C43.7215 41.8319 42.6162 42 41.5 42C40.3838 42 39.2785 41.8319 38.2472 41.5052C37.2159 41.1786 36.2789 40.6998 35.4896 40.0962C34.7003 39.4926 34.0742 38.7761 33.647 37.9874C33.4435 37.6116 33.287 37.223 33.1789 36.8267C32.9839 36.1113 33.6011 35.5 34.3426 35.5C35.0842 35.5 35.6659 36.1215 35.9431 36.8093C35.9965 36.942 36.0582 37.0729 36.1279 37.2016C36.4201 37.7411 36.8484 38.2313 37.3884 38.6442C37.9283 39.0571 38.5693 39.3846 39.2748 39.6081C39.9803 39.8315 40.7364 39.9465 41.5 39.9465C42.2636 39.9465 43.0197 39.8315 43.7252 39.6081C44.4307 39.3846 45.0717 39.0571 45.6116 38.6442C46.1516 38.2313 46.5799 37.7411 46.8721 37.2016C46.9418 37.0729 47.0035 36.942 47.0569 36.8093C47.3341 36.1215 47.9158 35.5 48.6574 35.5Z" fill="black"/>
</svg>
