<svg width="156" height="99" viewBox="0 0 156 99" fill="none" xmlns="http://www.w3.org/2000/svg">
<rect y="41" width="83" height="58" rx="29" fill="#EAFF6C"/>
<rect x="31" width="83" height="58" rx="29" fill="#FEE5E6"/>
<ellipse cx="53.5" cy="23" rx="6.5" ry="6" fill="black"/>
<ellipse cx="89.5" cy="23" rx="6.5" ry="6" fill="#040404"/>
<mask id="mask0_0:1" style="mask-type:alpha" maskUnits="userSpaceOnUse" x="87" y="30" width="7" height="8">
<ellipse cx="90.5" cy="34" rx="3.5" ry="4" fill="#FF006B"/>
</mask>
<g mask="url(#mask0_0:1)">
<rect x="87" y="30" width="7" height="4" rx="2" fill="#FF006B"/>
</g>
<circle cx="40" cy="75" r="9" fill="#0A0909"/>
<mask id="mask1_0:1" style="mask-type:alpha" maskUnits="userSpaceOnUse" x="50" y="30" width="7" height="8">
<ellipse cx="53.5" cy="34" rx="3.5" ry="4" fill="#FF006B"/>
</mask>
<g mask="url(#mask1_0:1)">
<rect x="50" y="30" width="7" height="4" rx="2" fill="#FF006B"/>
</g>
<ellipse cx="53" cy="20.5" rx="3" ry="2.5" fill="white"/>
<ellipse cx="88" cy="20.5" rx="3" ry="2.5" fill="white"/>
<circle cx="50.5" cy="25.5" r="1.5" fill="white"/>
<circle cx="86.5" cy="25.5" r="1.5" fill="white"/>
<path d="M94.286 15.5C95.2326 15.5 96.0243 14.7034 95.648 13.8348C95.2879 13.0036 94.6599 12.2391 93.8033 11.6109C92.3968 10.5795 90.4891 10 88.5 10C86.5109 10 84.6032 10.5795 83.1967 11.6109C82.3401 12.2391 81.7121 13.0036 81.352 13.8348C80.9757 14.7034 81.7674 15.5 82.714 15.5V15.5C83.6606 15.5 84.424 14.6588 85.0328 13.934C85.1978 13.7375 85.3945 13.5542 85.6206 13.3884C86.3843 12.8284 87.42 12.5138 88.5 12.5138C89.58 12.5138 90.6157 12.8284 91.3794 13.3884C91.6055 13.5542 91.8022 13.7375 91.9672 13.934C92.576 14.6588 93.3394 15.5 94.286 15.5V15.5Z" fill="black"/>
<path d="M58.286 16.5C59.2326 16.5 60.0243 15.7034 59.648 14.8348C59.2879 14.0036 58.6599 13.2391 57.8033 12.6109C56.3968 11.5795 54.4891 11 52.5 11C50.5109 11 48.6032 11.5795 47.1967 12.6109C46.3401 13.2391 45.7121 14.0036 45.352 14.8348C44.9757 15.7034 45.7674 16.5 46.714 16.5V16.5C47.6606 16.5 48.424 15.6588 49.0328 14.934C49.1978 14.7375 49.3945 14.5542 49.6206 14.3884C50.3843 13.8284 51.42 13.5138 52.5 13.5138C53.58 13.5138 54.6157 13.8284 55.3794 14.3884C55.6055 14.5542 55.8022 14.7375 55.9672 14.934C56.576 15.6588 57.3394 16.5 58.286 16.5V16.5Z" fill="black"/>
<path d="M29.286 54.5C30.2326 54.5 31.0243 53.7034 30.648 52.8348C30.2879 52.0036 29.6599 51.2391 28.8033 50.6109C27.3968 49.5795 25.4891 49 23.5 49C21.5109 49 19.6032 49.5795 18.1967 50.6109C17.3401 51.2391 16.7121 52.0036 16.352 52.8348C15.9757 53.7034 16.7674 54.5 17.714 54.5V54.5C18.6606 54.5 19.424 53.6588 20.0328 52.934C20.1978 52.7375 20.3945 52.5542 20.6206 52.3884C21.3843 51.8284 22.42 51.5138 23.5 51.5138C24.58 51.5138 25.6157 51.8284 26.3794 52.3884C26.6055 52.5542 26.8022 52.7375 26.9672 52.934C27.576 53.6588 28.3394 54.5 29.286 54.5V54.5Z" fill="black"/>
<path d="M79.6574 35.5C80.3989 35.5 81.0161 36.1113 80.8211 36.8267C80.713 37.223 80.5565 37.6116 80.353 37.9874C79.9258 38.7761 79.2997 39.4926 78.5104 40.0962C77.7211 40.6998 76.7841 41.1786 75.7528 41.5052C74.7215 41.8319 73.6162 42 72.5 42C71.3838 42 70.2785 41.8319 69.2472 41.5052C68.2159 41.1786 67.2789 40.6998 66.4896 40.0962C65.7003 39.4926 65.0742 38.7761 64.647 37.9874C64.4435 37.6116 64.287 37.223 64.1789 36.8267C63.9839 36.1113 64.6011 35.5 65.3426 35.5V35.5C66.0842 35.5 66.6659 36.1215 66.9431 36.8093C66.9965 36.942 67.0582 37.0729 67.1279 37.2016C67.4201 37.7411 67.8484 38.2313 68.3884 38.6442C68.9283 39.0571 69.5693 39.3846 70.2748 39.6081C70.9803 39.8315 71.7364 39.9465 72.5 39.9465C73.2636 39.9465 74.0197 39.8315 74.7252 39.6081C75.4307 39.3846 76.0717 39.0571 76.6116 38.6442C77.1516 38.2313 77.5799 37.7411 77.8721 37.2016C77.9418 37.0729 78.0035 36.942 78.0569 36.8093C78.3341 36.1215 78.9158 35.5 79.6574 35.5V35.5Z" fill="black"/>
<ellipse cx="22.5" cy="64" rx="6.5" ry="6" fill="black"/>
<ellipse cx="58.5" cy="64" rx="6.5" ry="6" fill="#040404"/>
<mask id="mask2_0:1" style="mask-type:alpha" maskUnits="userSpaceOnUse" x="56" y="71" width="7" height="8">
<ellipse cx="59.5" cy="75" rx="3.5" ry="4" fill="#FF006B"/>
</mask>
<g mask="url(#mask2_0:1)">
<rect x="56" y="71" width="7" height="4" rx="2" fill="#FF006B"/>
</g>
<mask id="mask3_0:1" style="mask-type:alpha" maskUnits="userSpaceOnUse" x="19" y="71" width="7" height="8">
<ellipse cx="22.5" cy="75" rx="3.5" ry="4" fill="#FF006B"/>
</mask>
<g mask="url(#mask3_0:1)">
<rect x="19" y="71" width="7" height="4" rx="2" fill="#FF006B"/>
</g>
<ellipse cx="22" cy="61.5" rx="3" ry="2.5" fill="white"/>
<ellipse cx="57" cy="61.5" rx="3" ry="2.5" fill="white"/>
<circle cx="19.5" cy="66.5" r="1.5" fill="white"/>
<circle cx="55.5" cy="66.5" r="1.5" fill="white"/>
<rect x="73" y="41" width="83" height="58" rx="29" fill="#EA6CFF"/>
<mask id="mask4_0:1" style="mask-type:alpha" maskUnits="userSpaceOnUse" x="129" y="71" width="7" height="8">
<ellipse cx="132.5" cy="75" rx="3.5" ry="4" fill="#FF006B"/>
</mask>
<g mask="url(#mask4_0:1)">
<rect x="129" y="71" width="7" height="4" rx="2" fill="#FF006B"/>
</g>
<mask id="mask5_0:1" style="mask-type:alpha" maskUnits="userSpaceOnUse" x="92" y="71" width="7" height="8">
<ellipse cx="95.5" cy="75" rx="3.5" ry="4" fill="#FF006B"/>
</mask>
<g mask="url(#mask5_0:1)">
<rect x="92" y="71" width="7" height="4" rx="2" fill="#FF006B"/>
</g>
<line x1="124" y1="64.5" x2="134" y2="64.5" stroke="black" stroke-width="3"/>
<line x1="93" y1="64.5" x2="103" y2="64.5" stroke="black" stroke-width="3"/>
<line x1="106" y1="77.5" x2="123" y2="77.5" stroke="black" stroke-width="3"/>
</svg>
